
<svg width="64" height="64" viewBox="0 0 64 64" fill="none" xmlns="http://www.w3.org/2000/svg">
  <defs>
    <linearGradient id="orangeGradient" x1="4" y1="4" x2="60" y2="60" gradientUnits="userSpaceOnUse">
      <stop offset="0%" stop-color="#FF8C00"/>
      <stop offset="100%" stop-color="#FF4500"/>
    </linearGradient>
    
    <filter id="glow" x="-20%" y="-20%" width="140%" height="140%">
      <feGaussianBlur stdDeviation="1.2" result="blur"/>
      <feComposite in="SourceGraphic" in2="blur" operator="over"/>
    </filter>
  </defs>

  <g stroke="#FF8C00" stroke-width="4" stroke-linecap="round" opacity="0.8">
    <line x1="32" y1="2" x2="32" y2="8" />
    <line x1="32" y1="56" x2="32" y2="62" />
    <line x1="2" y1="32" x2="8" y2="32" />
    <line x1="56" y1="32" x2="62" y2="32" />
    <line x1="10" y1="10" x2="15" y2="15" />
    <line x1="49" y1="49" x2="54" y2="54" />
    <line x1="10" y1="54" x2="15" y2="49" />
    <line x1="49" y1="15" x2="54" y2="10" />
  </g>

  <g transform="translate(-11, -8) scale(1.35)" filter="url(#glow)">
    <path d="M32 14C25.3726 14 20 19.3726 20 26C20 31.5228 23.733 36.1725 28.8 37.524V50L32 54L35.2 50V46H38.4V42H35.2V37.524C40.267 36.1725 44 31.5228 44 26C44 19.3726 38.6274 14 32 14ZM32 22C34.2091 22 36 23.7909 36 26C36 28.2091 34.2091 30 32 30C29.7909 30 28 28.2091 28 26C28 23.7909 29.7909 22 32 22Z" 
          fill="url(#orangeGradient)" />
  </g>

  <circle cx="52" cy="12" r="2" fill="#FFD700" opacity="0.9">
    <animate attributeName="opacity" values="0.4;1;0.4" dur="2s" repeatCount="indefinite" />
  </circle>
  <circle cx="12" cy="52" r="1.5" fill="#FFD700" opacity="0.7">
    <animate attributeName="opacity" values="0.2;0.8;0.2" dur="3s" repeatCount="indefinite" />
  </circle>
</svg>